<svg width="24" height="24" viewBox="0 0 24 24" fill="none" xmlns="http://www.w3.org/2000/svg">
  <rect width="24" height="24" rx="5" fill="#B92B27"/>
  <path d="M18.74 18.98c-.7.3-1.42.46-2.17.46-1.3 0-2.43-.42-3.38-1.27-.47.1-.96.15-1.47.15-1.16 0-2.22-.25-3.18-.75a5.75 5.75 0 0 1-2.27-2.13c-.55-.91-.82-1.97-.82-3.18 0-1.2.27-2.26.82-3.17a5.8 5.8 0 0 1 2.27-2.14c.96-.5 2.02-.75 3.18-.75 1.17 0 2.23.25 3.18.75a5.8 5.8 0 0 1 2.27 2.14c.55.91.83 1.97.83 3.17 0 1.82-.6 3.25-1.78 4.29.43.35.87.52 1.33.52.34 0 .68-.08 1.02-.23l.17 2.14ZM9.5 14.7c.56.63 1.3.95 2.22.95.88 0 1.6-.3 2.16-.9-.56-.24-1.16-.37-1.8-.37h-.45v-2.1h.52c1.02 0 1.98.25 2.87.74.04-.24.06-.5.06-.76 0-1.07-.3-1.9-.9-2.5-.6-.6-1.42-.9-2.46-.9s-1.86.3-2.46.9c-.6.6-.9 1.43-.9 2.5 0 1.02.38 1.83 1.14 2.44Z" fill="white"/>
</svg>
