<svg width="16" height="16" viewBox="0 0 16 16" fill="none" xmlns="http://www.w3.org/2000/svg">
<path d="M8.00032 1.47201C9.66705 1.47209 11.1825 2.10311 12.3363 3.13216L10.6449 4.82357C9.9279 4.22517 9.00789 3.86076 8.00032 3.86068C5.71461 3.86068 3.86067 5.71462 3.86067 8.00033C3.86085 10.2859 5.71472 12.139 8.00032 12.139C9.80213 12.1389 11.3302 10.9849 11.8988 9.37923L11.9642 9.19466H8.13899V6.80599H13.8607V6.83334H14.4202C14.4888 7.21231 14.5277 7.60212 14.5277 8.00033C14.5275 11.605 11.605 14.5275 8.00032 14.5277C4.39547 14.5277 1.47218 11.6051 1.472 8.00033C1.472 4.39537 4.39536 1.47201 8.00032 1.47201Z" fill="#FFC107" stroke="white" stroke-width="0.277778"/>
<path d="M2.10156 4.897L4.2919 6.50334C4.88456 5.036 6.3199 4 7.99956 4C9.01923 4 9.9469 4.38467 10.6532 5.013L12.5389 3.12734C11.3482 2.01767 9.75556 1.33334 7.99956 1.33334C5.4389 1.33334 3.21823 2.779 2.10156 4.897Z" fill="#FF3D00"/>
<path d="M8 14.6667C9.722 14.6667 11.2867 14.0077 12.4697 12.936L10.4063 11.19C9.71452 11.7161 8.86915 12.0007 8 12C6.266 12 4.79367 10.8943 4.239 9.35133L2.065 11.0263C3.16834 13.1853 5.409 14.6667 8 14.6667Z" fill="#4CAF50"/>
<path d="M14.537 6.69433H14V6.66666H8V9.33333H11.7677C11.5047 10.0721 11.0311 10.7177 10.4053 11.1903L10.4063 11.1897L12.4697 12.9357C12.3237 13.0683 14.6667 11.3333 14.6667 8C14.6667 7.553 14.6207 7.11666 14.537 6.69433Z" fill="#1976D2"/>
</svg>
