<svg width="83" height="88" viewBox="0 0 83 88" fill="none" xmlns="http://www.w3.org/2000/svg">
<path d="M60.2726 0L52.7089 8.27094H34.199L26.6227 16.5559H8.2758L0 25.6067V88H21.6379V27.0261L25.9232 22.2358V79.7137H47.5611V18.7411L51.998 13.7823V71.4441H73.6347V10.4701L83 0H60.2726ZM18.5225 27.9974V84.8282H3.11424V27.9974H18.5225ZM4.96974 24.8269L9.63609 19.7264H23.9548L19.3925 24.8269H4.96974ZM44.4456 19.7124V76.5432H29.0374V19.7124H44.4456ZM30.8916 16.5419L35.558 11.4415H49.8767L45.3144 16.5419H30.8916ZM70.5192 11.4415V68.2723H55.111V11.4415H70.5192ZM56.9653 8.27094L61.6316 3.17053H75.9503L71.388 8.27094H56.9653Z" fill="#D4D4D4"/>
</svg>
