<svg width="135" height="47" viewBox="0 0 135 47" fill="none" xmlns="http://www.w3.org/2000/svg">
<g opacity="0.3">
<path d="M73.1581 0L70.8215 2.56135H65.1033L62.7628 5.12705H57.0949L54.5383 7.92991V27.2519H61.2229V8.36945L62.5467 6.886V24.6858H69.2312V5.80375L70.6019 4.26813V22.1249H77.2861V3.2424L80.1793 0H73.1581ZM60.2604 8.67025V26.2697H55.5004V8.67025H60.2604ZM56.0736 7.6884L57.5152 6.1089H61.9386L60.5292 7.6884H56.0736ZM68.2688 6.10455V23.704H63.5088V6.10455H68.2688ZM64.0816 5.1227L65.5231 3.5432H69.9466L68.5372 5.1227H64.0816ZM76.3236 3.5432V21.1426H71.5636V3.5432H76.3236ZM72.1364 2.56135L73.578 0.981851H78.0014L76.592 2.56135H72.1364Z" fill="#0A0A0A"/>
<path d="M0 44.6641V33.6076H4.23076C5.51281 33.6076 6.5128 33.9191 7.23075 34.542C7.9487 35.1649 8.30767 36.0266 8.30767 37.127C8.30767 37.8641 8.14357 38.5026 7.81536 39.0424C7.48716 39.5719 7.02049 39.9768 6.41537 40.2571C5.81024 40.5374 5.08204 40.6776 4.23076 40.6776H1.99999V44.6641H0ZM1.99999 38.9179H4.13845C4.81537 38.9179 5.33332 38.7673 5.69229 38.4663C6.06152 38.1652 6.24614 37.7188 6.24614 37.127C6.24614 36.5456 6.06152 36.1096 5.69229 35.8189C5.33332 35.5179 4.81537 35.3673 4.13845 35.3673H1.99999V38.9179Z" fill="#0A0A0A"/>
<path d="M12.8883 44.851C12.0781 44.851 11.3652 44.6745 10.7499 44.3215C10.1447 43.9582 9.67293 43.4495 9.33447 42.7954C9.00627 42.1414 8.84216 41.3783 8.84216 40.5063C8.84216 39.6238 9.00627 38.8608 9.33447 38.2171C9.67293 37.5631 10.1447 37.0595 10.7499 36.7066C11.3652 36.3432 12.0781 36.1615 12.8883 36.1615C13.6986 36.1615 14.4063 36.3432 15.0114 36.7066C15.6165 37.0595 16.0832 37.5631 16.4114 38.2171C16.7498 38.8608 16.9191 39.6238 16.9191 40.5063C16.9191 41.3783 16.7498 42.1414 16.4114 42.7954C16.0832 43.4495 15.6165 43.9582 15.0114 44.3215C14.4063 44.6745 13.6986 44.851 12.8883 44.851ZM12.8883 43.2314C13.5242 43.2314 14.0114 42.9927 14.3498 42.5151C14.6986 42.0376 14.8729 41.3679 14.8729 40.5063C14.8729 39.655 14.6986 38.9905 14.3498 38.513C14.0114 38.025 13.5242 37.7811 12.8883 37.7811C12.2524 37.7811 11.7601 38.025 11.4114 38.513C11.0627 38.9905 10.8883 39.655 10.8883 40.5063C10.8883 41.3679 11.0627 42.0376 11.4114 42.5151C11.7601 42.9927 12.2524 43.2314 12.8883 43.2314Z" fill="#0A0A0A"/>
<path d="M19.5686 44.6641L17.0917 36.3484H19.107L20.707 42.4061L22.3532 36.3484H24.0763L25.7378 42.4061L27.3378 36.3484H29.3532L26.8762 44.6641H24.8455L23.2147 39.0892L21.5993 44.6641H19.5686Z" fill="#0A0A0A"/>
<path d="M33.5616 44.851C32.7411 44.851 32.0282 44.6745 31.4231 44.3215C30.818 43.9582 30.3513 43.4495 30.0231 42.7954C29.6949 42.1414 29.5308 41.3783 29.5308 40.5063C29.5308 39.6342 29.6949 38.8763 30.0231 38.2327C30.3513 37.5786 30.8129 37.0699 31.4077 36.7066C32.0129 36.3432 32.7154 36.1615 33.5154 36.1615C34.2949 36.1615 34.9769 36.338 35.5616 36.691C36.1564 37.044 36.6128 37.5527 36.9308 38.2171C37.2487 38.8815 37.4077 39.6809 37.4077 40.6153V41.0669H31.577C31.618 41.7936 31.8129 42.3438 32.1616 42.7176C32.5205 43.0809 32.9923 43.2626 33.577 43.2626C34.018 43.2626 34.3821 43.164 34.6693 42.9667C34.9667 42.7591 35.1718 42.4736 35.2846 42.1102L37.3 42.2348C37.0744 43.0446 36.6282 43.6831 35.9616 44.1502C35.3051 44.6174 34.5052 44.851 33.5616 44.851ZM31.577 39.7276H35.3769C35.3359 39.0528 35.1462 38.5545 34.8077 38.2327C34.4693 37.9005 34.0385 37.7344 33.5154 37.7344C32.9923 37.7344 32.5564 37.9057 32.2077 38.2482C31.8693 38.5908 31.659 39.084 31.577 39.7276Z" fill="#0A0A0A"/>
<path d="M38.6393 44.6641V36.3484H40.4855L40.5624 38.6531L40.3932 38.622C40.5162 37.8226 40.747 37.2464 41.0855 36.8934C41.4342 36.5301 41.906 36.3484 42.5008 36.3484H43.2547V38.0614H42.4855C42.0649 38.0614 41.7162 38.1237 41.4393 38.2482C41.1624 38.3728 40.9521 38.5701 40.8085 38.84C40.6752 39.0995 40.6085 39.4421 40.6085 39.8678V44.6641H38.6393Z" fill="#0A0A0A"/>
<path d="M47.5645 44.851C46.744 44.851 46.0312 44.6745 45.4261 44.3215C44.821 43.9582 44.3543 43.4495 44.0261 42.7954C43.6979 42.1414 43.5338 41.3783 43.5338 40.5063C43.5338 39.6342 43.6979 38.8763 44.0261 38.2327C44.3543 37.5786 44.8158 37.0699 45.4107 36.7066C46.0158 36.3432 46.7184 36.1615 47.5184 36.1615C48.2979 36.1615 48.9799 36.338 49.5645 36.691C50.1594 37.044 50.6158 37.5527 50.9338 38.2171C51.2517 38.8815 51.4107 39.6809 51.4107 40.6153V41.0669H45.5799C45.6209 41.7936 45.8158 42.3438 46.1645 42.7176C46.5235 43.0809 46.9953 43.2626 47.5799 43.2626C48.0209 43.2626 48.385 43.164 48.6722 42.9667C48.9697 42.7591 49.1748 42.4736 49.2876 42.1102L51.303 42.2348C51.0773 43.0446 50.6312 43.6831 49.9645 44.1502C49.3081 44.6174 48.5081 44.851 47.5645 44.851ZM45.5799 39.7276H49.3799C49.3389 39.0528 49.1491 38.5545 48.8107 38.2327C48.4722 37.9005 48.0415 37.7344 47.5184 37.7344C46.9953 37.7344 46.5594 37.9057 46.2107 38.2482C45.8722 38.5908 45.662 39.084 45.5799 39.7276Z" fill="#0A0A0A"/>
<path d="M55.5654 44.851C54.8679 44.851 54.2628 44.6745 53.75 44.3215C53.2474 43.9685 52.8577 43.465 52.5807 42.811C52.3038 42.1569 52.1654 41.3887 52.1654 40.5063C52.1654 39.6238 52.3038 38.8556 52.5807 38.2015C52.8577 37.5475 53.2525 37.044 53.7654 36.691C54.2782 36.338 54.8782 36.1615 55.5654 36.1615C56.1397 36.1615 56.6423 36.2809 57.073 36.5197C57.5141 36.7585 57.8474 37.0959 58.073 37.5319V33.6076H60.0423V44.6641H58.1653L58.1192 43.4339C57.8936 43.8803 57.5551 44.2281 57.1038 44.4773C56.6525 44.7264 56.1397 44.851 55.5654 44.851ZM56.1653 43.2314C56.5756 43.2314 56.9192 43.1276 57.1961 42.92C57.4833 42.7124 57.6987 42.4061 57.8423 42.0012C57.9961 41.586 58.073 41.0876 58.073 40.5063C58.073 39.9145 57.9961 39.4162 57.8423 39.0113C57.6987 38.6064 57.4833 38.3002 57.1961 38.0925C56.9192 37.8849 56.5756 37.7811 56.1653 37.7811C55.5705 37.7811 55.0936 38.025 54.7346 38.513C54.3859 38.9905 54.2115 39.655 54.2115 40.5063C54.2115 41.3368 54.3859 42.0012 54.7346 42.4995C55.0936 42.9875 55.5705 43.2314 56.1653 43.2314Z" fill="#0A0A0A"/>
<path d="M69.6333 44.851C69.059 44.851 68.5564 44.7264 68.1257 44.4773C67.7051 44.2281 67.3769 43.8803 67.141 43.4339L67.0949 44.6641H65.218V33.6076H67.1872V37.5319C67.4128 37.1478 67.7359 36.826 68.1564 36.5664C68.5769 36.2965 69.0692 36.1615 69.6333 36.1615C70.341 36.1615 70.9513 36.3432 71.4641 36.7066C71.9872 37.0595 72.3872 37.5631 72.6641 38.2171C72.9513 38.8608 73.0949 39.6238 73.0949 40.5063C73.0949 41.3887 72.9513 42.1569 72.6641 42.811C72.3872 43.4547 71.9872 43.9582 71.4641 44.3215C70.9513 44.6745 70.341 44.851 69.6333 44.851ZM69.1872 43.2314C69.7513 43.2314 70.2026 42.9927 70.541 42.5151C70.8795 42.0272 71.0487 41.3576 71.0487 40.5063C71.0487 39.6446 70.8795 38.975 70.541 38.4974C70.2128 38.0198 69.7667 37.7811 69.2026 37.7811C68.7821 37.7811 68.418 37.8901 68.1103 38.1081C67.8128 38.3157 67.5821 38.622 67.418 39.0269C67.2641 39.4318 67.1872 39.9249 67.1872 40.5063C67.1872 41.0669 67.2641 41.5548 67.418 41.9701C67.5821 42.375 67.8128 42.6864 68.1103 42.9044C68.4077 43.1224 68.7667 43.2314 69.1872 43.2314Z" fill="#0A0A0A"/>
<path d="M74.6145 47V45.4583H75.6606C75.9273 45.4583 76.1221 45.4168 76.2452 45.3337C76.3786 45.2507 76.4811 45.1105 76.5529 44.9133L76.7837 44.3371H76.2145L73.276 36.3484H75.3222L77.3837 42.4684L79.3529 36.3484H81.3991L78.1837 45.5362C77.9991 46.0553 77.7375 46.429 77.3991 46.6574C77.0709 46.8858 76.6093 47 76.0145 47H74.6145Z" fill="#0A0A0A"/>
<path d="M85.9781 44.6641V33.6076H88.6704L91.6858 42.1725L94.7012 33.6076H97.3935V44.6641H95.3935V37.0336L92.6396 44.6485H90.732L87.9781 37.0336V44.6641H85.9781Z" fill="#0A0A0A"/>
<path d="M101.633 44.851C100.772 44.851 100.079 44.6537 99.5562 44.2592C99.0331 43.8544 98.7716 43.2937 98.7716 42.5774C98.7716 41.8611 98.9921 41.3005 99.4331 40.8956C99.8742 40.4907 100.546 40.2 101.449 40.0235L104.172 39.4785C104.172 38.8867 104.038 38.4455 103.772 38.1548C103.505 37.8537 103.11 37.7032 102.587 37.7032C102.115 37.7032 101.741 37.8174 101.464 38.0458C101.197 38.2638 101.013 38.5805 100.91 38.9957L98.9101 38.9023C99.0742 38.0199 99.4742 37.345 100.11 36.8779C100.746 36.4003 101.572 36.1615 102.587 36.1615C103.756 36.1615 104.638 36.4626 105.233 37.0647C105.838 37.6565 106.141 38.5078 106.141 39.6186V42.6397C106.141 42.8577 106.177 43.0082 106.249 43.0913C106.331 43.1744 106.449 43.2159 106.602 43.2159H106.864V44.6641C106.802 44.6849 106.7 44.7005 106.556 44.7108C106.423 44.7212 106.284 44.7264 106.141 44.7264C105.802 44.7264 105.5 44.6745 105.233 44.5707C104.966 44.4565 104.761 44.2644 104.618 43.9945C104.474 43.7142 104.402 43.3353 104.402 42.8577L104.572 42.9823C104.49 43.3456 104.31 43.6727 104.033 43.9634C103.766 44.2437 103.428 44.4617 103.018 44.6174C102.607 44.7731 102.146 44.851 101.633 44.851ZM102.033 43.4027C102.474 43.4027 102.854 43.3145 103.172 43.138C103.49 42.9615 103.736 42.7176 103.91 42.4061C104.084 42.0947 104.172 41.7261 104.172 41.3005V40.8333L102.049 41.2693C101.607 41.3627 101.29 41.5029 101.095 41.6898C100.91 41.8663 100.818 42.0998 100.818 42.3905C100.818 42.7124 100.92 42.9615 101.125 43.138C101.341 43.3145 101.643 43.4027 102.033 43.4027Z" fill="#0A0A0A"/>
<path d="M111.083 44.851C110.273 44.851 109.591 44.7316 109.037 44.4928C108.494 44.254 108.073 43.9218 107.776 43.4962C107.478 43.0705 107.309 42.5878 107.268 42.0479L109.283 41.9545C109.355 42.3905 109.535 42.7279 109.822 42.9667C110.109 43.2055 110.535 43.3249 111.099 43.3249C111.56 43.3249 111.919 43.2522 112.176 43.1069C112.442 42.9511 112.576 42.7124 112.576 42.3905C112.576 42.2037 112.529 42.0479 112.437 41.9234C112.345 41.7988 112.171 41.6898 111.914 41.5963C111.658 41.5029 111.278 41.4095 110.776 41.316C109.935 41.1707 109.273 40.9942 108.791 40.7866C108.309 40.5686 107.965 40.2986 107.76 39.9768C107.565 39.655 107.468 39.2553 107.468 38.7777C107.468 37.9991 107.76 37.371 108.345 36.8934C108.94 36.4055 109.806 36.1615 110.945 36.1615C111.683 36.1615 112.304 36.2861 112.806 36.5353C113.309 36.774 113.699 37.1063 113.976 37.5319C114.263 37.9472 114.442 38.4247 114.514 38.9646L112.529 39.058C112.478 38.7777 112.386 38.5337 112.253 38.3261C112.119 38.1185 111.94 37.9627 111.714 37.8589C111.488 37.7447 111.222 37.6876 110.914 37.6876C110.453 37.6876 110.104 37.7811 109.868 37.9679C109.632 38.1548 109.514 38.404 109.514 38.7154C109.514 38.9334 109.565 39.1151 109.668 39.2605C109.781 39.4058 109.96 39.5252 110.206 39.6186C110.453 39.7017 110.781 39.7795 111.191 39.8522C112.053 39.9872 112.729 40.1637 113.222 40.3817C113.724 40.5893 114.078 40.8592 114.283 41.1915C114.499 41.5133 114.606 41.9026 114.606 42.3594C114.606 42.8889 114.458 43.3405 114.16 43.7142C113.873 44.0879 113.463 44.3734 112.929 44.5707C112.406 44.7576 111.791 44.851 111.083 44.851Z" fill="#0A0A0A"/>
<path d="M119.174 44.851C118.364 44.851 117.682 44.7316 117.128 44.4928C116.584 44.254 116.164 43.9218 115.866 43.4962C115.569 43.0705 115.4 42.5878 115.359 42.0479L117.374 41.9545C117.446 42.3905 117.625 42.7279 117.913 42.9667C118.2 43.2055 118.625 43.3249 119.189 43.3249C119.651 43.3249 120.01 43.2522 120.266 43.1069C120.533 42.9511 120.666 42.7124 120.666 42.3905C120.666 42.2037 120.62 42.0479 120.528 41.9234C120.436 41.7988 120.261 41.6898 120.005 41.5963C119.748 41.5029 119.369 41.4095 118.866 41.316C118.025 41.1707 117.364 40.9942 116.882 40.7866C116.4 40.5686 116.056 40.2986 115.851 39.9768C115.656 39.655 115.559 39.2553 115.559 38.7777C115.559 37.9991 115.851 37.371 116.436 36.8934C117.03 36.4055 117.897 36.1615 119.036 36.1615C119.774 36.1615 120.395 36.2861 120.897 36.5353C121.4 36.774 121.789 37.1063 122.066 37.5319C122.354 37.9472 122.533 38.4247 122.605 38.9646L120.62 39.058C120.569 38.7777 120.477 38.5337 120.343 38.3261C120.21 38.1185 120.03 37.9627 119.805 37.8589C119.579 37.7447 119.313 37.6876 119.005 37.6876C118.543 37.6876 118.195 37.7811 117.959 37.9679C117.723 38.1548 117.605 38.404 117.605 38.7154C117.605 38.9334 117.656 39.1151 117.759 39.2605C117.872 39.4058 118.051 39.5252 118.297 39.6186C118.543 39.7017 118.872 39.7795 119.282 39.8522C120.143 39.9872 120.82 40.1637 121.313 40.3817C121.815 40.5893 122.169 40.8592 122.374 41.1915C122.589 41.5133 122.697 41.9026 122.697 42.3594C122.697 42.8889 122.548 43.3405 122.251 43.7142C121.964 44.0879 121.554 44.3734 121.02 44.5707C120.497 44.7576 119.882 44.851 119.174 44.851Z" fill="#0A0A0A"/>
<path d="M123.926 44.6641V36.3484H125.896V44.6641H123.926ZM123.896 35.2427V33.4675H125.942V35.2427H123.896Z" fill="#0A0A0A"/>
<path d="M131.169 44.851C130.349 44.851 129.636 44.6745 129.031 44.3215C128.426 43.9582 127.954 43.4495 127.615 42.7954C127.287 42.1414 127.123 41.3783 127.123 40.5063C127.123 39.6342 127.287 38.8763 127.615 38.2327C127.954 37.5786 128.426 37.0699 129.031 36.7066C129.636 36.3432 130.349 36.1615 131.169 36.1615C131.867 36.1615 132.487 36.2861 133.031 36.5353C133.574 36.7844 134.015 37.1426 134.354 37.6098C134.703 38.0666 134.918 38.6272 135 39.2916L132.969 39.4006C132.887 38.8711 132.682 38.4715 132.354 38.2015C132.036 37.9212 131.641 37.7811 131.169 37.7811C130.533 37.7811 130.041 38.025 129.692 38.513C129.344 38.9905 129.169 39.655 129.169 40.5063C129.169 41.3679 129.344 42.0376 129.692 42.5151C130.041 42.9927 130.533 43.2314 131.169 43.2314C131.651 43.2314 132.051 43.0913 132.369 42.811C132.697 42.5307 132.897 42.0947 132.969 41.5029L135 41.5963C134.918 42.2608 134.708 42.8369 134.369 43.3249C134.031 43.8128 133.59 44.1918 133.046 44.4617C132.503 44.7212 131.877 44.851 131.169 44.851Z" fill="#0A0A0A"/>
</g>
</svg>
