<svg width="14" height="15" viewBox="0 0 14 15" fill="none" xmlns="http://www.w3.org/2000/svg">
<path d="M14 0L12.3096 1.85645V11.7432H8.51758V2.65918L8.03809 3.1875V13.0742H4.24609V4.02051L3.79102 4.52051V14.4082H0V4.19531L1.4248 2.66406H4.43066L5.67188 1.33105H8.7041L9.94336 0H14ZM0.756836 4.75195V13.6514H3.03418V4.75195H0.756836ZM5.00293 3.41895V12.3174H7.28125V3.41895H5.00293ZM9.27441 2.08789V10.9863H11.5527V2.08789H9.27441ZM1.75488 3.4209L1.2207 3.99512H3.24512L3.76855 3.4209H1.75488ZM6.00195 2.08789L5.4668 2.66211H7.49219L8.01562 2.08789H6.00195ZM10.2734 0.756836L9.73828 1.33105H11.7637L12.2871 0.756836H10.2734Z" fill="#2E6A56"/>
</svg>